<?xml version="1.0" encoding="UTF-8" standalone="no"?>
<svg width="200" height="200" viewBox="0 0 200 200" fill="none" xmlns="http://www.w3.org/2000/svg">
  <!-- Bread icon -->
  <path d="M60 70C60 53.4315 73.4315 40 90 40H110C126.569 40 140 53.4315 140 70V110C140 126.569 126.569 140 110 140H90C73.4315 140 60 126.569 60 110V70Z" stroke="#1A1A1A" stroke-width="8"/>
  <path d="M60 70C60 70 75 90 100 90C125 90 140 70 140 70" stroke="#1A1A1A" stroke-width="8"/>
  <path d="M75 70C75 70 83.75 85 100 85C116.25 85 125 70 125 70" stroke="#1A1A1A" stroke-width="8"/>
  <path d="M90 70C90 70 95 80 100 80C105 80 110 70 110 70" stroke="#1A1A1A" stroke-width="8"/>
  
  <!-- Gear icon -->
  <path d="M160 100C160 111.046 151.046 120 140 120C128.954 120 120 111.046 120 100C120 88.9543 128.954 80 140 80C151.046 80 160 88.9543 160 100Z" stroke="#1A1A1A" stroke-width="8"/>
  <path d="M140 70V60" stroke="#1A1A1A" stroke-width="8" stroke-linecap="round"/>
  <path d="M140 140V130" stroke="#1A1A1A" stroke-width="8" stroke-linecap="round"/>
  <path d="M170 100L160 100" stroke="#1A1A1A" stroke-width="8" stroke-linecap="round"/>
  <path d="M120 100L110 100" stroke="#1A1A1A" stroke-width="8" stroke-linecap="round"/>
  <path d="M160.607 79.3934L153.536 86.4645" stroke="#1A1A1A" stroke-width="8" stroke-linecap="round"/>
  <path d="M126.464 113.536L119.393 120.607" stroke="#1A1A1A" stroke-width="8" stroke-linecap="round"/>
  <path d="M160.607 120.607L153.536 113.536" stroke="#1A1A1A" stroke-width="8" stroke-linecap="round"/>
  <path d="M126.464 86.4645L119.393 79.3934" stroke="#1A1A1A" stroke-width="8" stroke-linecap="round"/>
</svg>
